<svg xmlns="http://www.w3.org/2000/svg" viewBox="-12 -12 24 24">
  <path
    fill="currentColor"
    d="M-1.442-10.906c-.453.059-.705.531-.636.983.178 1.166-.187 2.202-.983 2.532-.796.33-1.787-.144-2.485-1.095a.98.98 0 0 0-1.146-.246 10.96 10.96 0 0 0-2.039 2.04.98.98 0 0 0 .246 1.146c.95.698 1.424 1.689 1.095 2.485-.33.796-1.366 1.161-2.532.983a.98.98 0 0 0-.983.636 11.064 11.064 0 0 0-.001 2.884c.059.453.531.705.983.636 1.166-.178 2.202.187 2.532.983.33.796-.144 1.787-1.095 2.485a.98.98 0 0 0-.246 1.146 10.96 10.96 0 0 0 2.04 2.039.98.98 0 0 0 1.146-.246c.698-.95 1.689-1.424 2.485-1.095.796.33 1.161 1.366.983 2.532a.98.98 0 0 0 .636.983 11.064 11.064 0 0 0 2.884.001c.453-.059.705-.531.636-.983-.178-1.166.187-2.202.983-2.532.796-.33 1.787.144 2.485 1.095a.98.98 0 0 0 1.146.246 10.96 10.96 0 0 0 2.039-2.04.98.98 0 0 0-.246-1.146c-.95-.698-1.424-1.689-1.095-2.485.33-.796 1.366-1.161 2.532-.983a.98.98 0 0 0 .983-.636 11.064 11.064 0 0 0 .001-2.884.98.98 0 0 0-.983-.636c-1.166.178-2.202-.187-2.532-.983-.33-.796.144-1.787 1.095-2.485a.98.98 0 0 0 .246-1.146 10.96 10.96 0 0 0-2.04-2.039.98.98 0 0 0-1.146.246c-.698.95-1.689 1.424-2.485 1.095-.796-.33-1.161-1.366-.983-2.532a.98.98 0 0 0-.636-.983 11.064 11.064 0 0 0-2.884-.001zM0-4a4 4 0 1 1 0 8 4 4 0 0 1 0-8z"
  />
</svg>
